<?xml version="1.0" encoding="UTF-8"?>
<!DOCTYPE svg PUBLIC "-//W3C//DTD SVG 1.1//EN" "http://www.w3.org/Graphics/SVG/1.1/DTD/svg11.dtd">
<!-- Creator: CorelDRAW -->
<svg xmlns="http://www.w3.org/2000/svg" xml:space="preserve" width="3.09185in" height="0.455854in" version="1.1" style="shape-rendering:geometricPrecision; text-rendering:geometricPrecision; image-rendering:optimizeQuality; fill-rule:evenodd; clip-rule:evenodd"
viewBox="0 0 21830.08 3218.57"
 xmlns:xlink="http://www.w3.org/1999/xlink"
 xmlns:xodm="http://www.corel.com/coreldraw/odm/2003">
 <defs>
  <style type="text/css">
   <![CDATA[
    .fil1 {fill:#4B4B4D}
    .fil0 {fill:#C971A1;fill-rule:nonzero}
   ]]>
  </style>
 </defs>
 <g id="Layer_x0020_1">
  <metadata id="CorelCorpID_0Corel-Layer"/>
  <g id="_2288056874208">
   <path class="fil0" d="M10929.93 634.42c61.79,83.42 169.54,213.34 322.14,388.66l495.85 574.54 476.86 550.78c10.56,-186.41 15.84,-428.8 15.84,-726.62 0,-223.91 -4.75,-373.35 -13.73,-449.4 -9.51,-75.53 -43.84,-139.4 -103.49,-191.16 -59.68,-51.23 -134.15,-77.11 -222.85,-77.11 -41.72,0 -62.32,-8.98 -62.32,-26.41 0,-10.03 4.23,-17.96 13.2,-22.18 8.45,-4.75 78.17,-9.51 208.06,-14.23 129.9,-4.75 239.22,-6.87 327.93,-6.87l208.59 1.58 33.8 0c32.22,0 48.06,8.95 48.06,26.91 0,15.84 -13.73,25.35 -41.72,28.52 -104.02,11.09 -179.02,38.55 -224.44,81.34 -45.92,42.78 -73.39,104.55 -81.84,184.82 -8.98,80.81 -13.2,351.69 -13.2,812.71l-15.32 817.47c0,41.2 -10.03,61.79 -30.63,61.79 -5.28,0 -12.15,-2.11 -20.6,-6.34 -8.98,-4.23 -54.93,-56.51 -138.35,-156.3 -83.98,-99.82 -186.94,-219.15 -308.94,-358.59 -122.5,-138.88 -218.63,-251.87 -288.84,-338.49 -154.22,-186.94 -250.84,-301.55 -291.51,-344.83 -149.44,-158.97 -237.64,-260.88 -264.58,-306.3 -17.43,-31.16 -33.8,-46.48 -48.06,-46.48 -10.56,0 -15.84,20.07 -15.84,60.21l3.17 240.28c0,304.71 8.45,548.14 24.82,730.32 16.37,181.68 33.8,288.34 51.76,320.03 17.96,31.16 49.12,62.85 94.01,95.07 44.86,32.19 92.4,48.03 142.57,48.03 68.13,0 101.93,12.15 101.93,36.97 0,18.49 -19.01,27.99 -57.04,27.99l-743.02 -1.58c-34.86,0 -52.26,-8.98 -52.26,-26.41 0,-20.6 16.87,-30.63 50.67,-30.63 126.76,0 211.23,-27.99 253.48,-84.48 42.25,-56.51 63.38,-176.37 63.38,-359.64l-11.62 -544.44c-2.64,-320.56 -12.68,-509.08 -30.1,-566.09 -17.43,-57.04 -56.51,-126.23 -117.22,-208.06 -60.74,-81.86 -129.92,-128.34 -207.01,-138.38 -34.86,-4.23 -52.29,-14.26 -52.29,-29.58 0,-20.04 22.71,-30.6 67.58,-30.6l453.1 3.17z"/>
   <path id="_1" class="fil0" d="M13105.63 1927.14c-4.23,52.29 -6.34,94.01 -6.34,125.17 0,145.74 43.31,269.33 129.4,370.18 86.59,100.88 193.28,151.02 320.53,151.02 124.64,0 239.75,-49.62 346.44,-148.38 31.13,-27.99 50.67,-41.72 59.13,-41.72 16.37,0 25.35,13.2 26.41,40.14 -39.61,72.36 -106.66,133.59 -201.73,183.24 -95.04,49.65 -200.67,74.47 -317.36,74.47 -171.12,0 -316.33,-61.79 -435.14,-184.82 -118.83,-123.59 -177.99,-279.89 -177.99,-468.41 0,-202.25 64.96,-371.23 195.42,-506.44 130.43,-135.18 269.83,-202.78 418.24,-202.78 139.4,0 265.08,52.82 377.57,158.97 112.47,106.13 168.45,230.22 168.45,373.35 0,21.65 -3.17,37.5 -10.03,48.06 -6.87,10.03 -46.48,15.29 -118.28,15.29l-774.71 12.68zm0 -79.19c134.15,6.34 264.58,9.51 390.78,9.51l82.39 -4.75c61.79,-2.11 109.33,-14.26 142.57,-36.44 33.27,-22.71 49.65,-61.79 49.65,-117.75 0,-87.14 -29.58,-163.73 -89.23,-228.66 -59.68,-64.96 -129.4,-97.18 -210.18,-97.18 -74.47,0 -148.94,36.97 -222.85,111.44 -73.94,74.44 -121.47,195.39 -143.13,363.84z"/>
   <path id="_2" class="fil0" d="M14682.49 1464.56c-13.73,228.13 -20.6,452.01 -20.6,671.7 0,169.54 20.07,279.89 60.74,331.12 40.67,51.76 98.76,77.61 174.79,77.61 54.93,0 116.19,-20.04 182.71,-60.71 23.77,-14.26 38.55,-21.65 43.84,-21.65 13.73,0 20.6,7.39 20.6,21.65 0,24.29 -36.97,63.35 -110.36,116.69 -73.94,53.34 -163.73,80.28 -270.91,80.28 -105.63,0 -184.82,-36.44 -237.64,-109.86 -52.82,-72.86 -79.22,-182.18 -79.22,-327.4 0,-151.55 9.51,-411.37 28.52,-779.44 -7.39,-2.11 -55.98,-5.28 -146.27,-10.03l-92.43 -5.81c-22.71,-1.06 -33.8,-8.98 -33.8,-23.24 0,-13.73 12.68,-24.29 38.03,-32.75 41.72,-15.32 111.97,-61.27 210.7,-136.76 98.76,-75.53 156.33,-182.21 172.68,-320.03 4.23,-36.44 15.84,-54.4 34.86,-54.4 19.01,0 28.52,14.26 28.52,43.31 0,9.51 -0.53,19.01 -1.58,29.58 -3.17,40.14 -4.75,86.62 -4.75,138.88l1.58 241.34 336.93 -3.17c57.54,0 87.12,6.87 89.23,20.07 -1.06,48.06 -8.45,78.17 -23.24,90.84 -53.32,0 -187.47,7.39 -402.92,22.18z"/>
   <path id="_3" class="fil0" d="M16034.92 2342.73c176.37,-411.9 264.05,-654.27 264.05,-726.62 0,-34.86 -9.51,-69.72 -28.52,-105.1 -19.01,-34.83 -37.5,-58.6 -55.46,-70.22 -17.96,-11.62 -45.42,-18.49 -81.31,-20.6 -24.82,-1.06 -36.97,-10.56 -36.97,-28.52 0,-23.24 13.2,-34.86 40.11,-34.86l273.55 -6.34c132.04,0 205.95,1.06 222.32,3.7 16.37,2.64 24.82,11.09 24.82,25.88 0,13.2 -16.9,25.35 -51.23,36.97 -61.77,21.65 -92.4,51.23 -92.4,89.76 0,11.09 9.51,44.89 28.52,100.88 18.99,56.51 57.01,151.55 113.52,285.17l186.94 429.86c70.77,-176.4 134.68,-350.66 192.22,-523.34 57.04,-172.68 85.56,-271.97 85.56,-297.85 0,-52.26 -32.75,-81.84 -98.76,-87.65 -38.03,-4.23 -57.01,-16.37 -57.01,-36.44 0,-14.79 16.34,-23.77 49.62,-26.41 32.75,-2.64 101.4,-3.7 206.48,-3.7 69.19,0 113.02,1.58 132.57,4.75 19.54,2.64 29.58,11.09 29.58,24.29 0,13.2 -20.6,28.52 -61.79,47.01 -51.23,22.71 -89.79,52.29 -115.66,89.23 -25.85,37.5 -55.43,114.08 -88.17,230.25 -27.46,95.07 -87.14,262.99 -179.02,504.33l-149.47 395.53c-8.45,23.77 -19.01,35.39 -32.72,35.39 -13.2,0 -29.05,-26.41 -48.06,-78.69 -13.2,-34.33 -57.04,-139.4 -132.04,-316.31 -102.43,-236.58 -177.43,-420.35 -224.44,-551.86l-11.06 10.56c-29.58,88.2 -73.94,205.42 -132.04,350.66l-160 393.94c-47.53,117.75 -75,179.54 -82.92,185.35 -7.39,6.34 -13.73,9.51 -19.01,9.51 -13.73,0 -29.02,-22.18 -46.45,-66.55 -85.03,-216.51 -162.67,-408.2 -233.94,-576.66l-176.9 -407.68c-45.42,-105.1 -78.69,-165.81 -99.82,-182.18 -21.13,-16.37 -45.95,-25.88 -73.41,-27.99 -35.36,-4.23 -52.79,-13.73 -52.79,-29.58 0,-22.71 23.24,-33.8 69.69,-33.8l351.19 -6.34 145.74 3.17c30.1,0 44.89,7.92 44.89,23.24 0,20.6 -20.07,33.8 -60.21,40.14 -74.47,12.68 -111.41,38.03 -111.41,76.55 0,54.93 110.36,337.99 331.62,849.15z"/>
   <path id="_4" class="fil0" d="M17569.5 2003.72c0,-181.13 65.49,-340.6 196.47,-478.45 130.95,-137.82 292.01,-206.48 483.17,-206.48 179.02,0 333.76,61.79 463.13,185.35 129.37,123.06 194.33,277.25 194.33,462.6 0,186.94 -68.13,351.72 -204.37,492.71 -136.23,141.52 -295.18,212.29 -476.34,212.29 -179.54,0 -333.74,-64.96 -463.1,-195.39 -128.87,-129.92 -193.3,-287.29 -193.3,-472.64zm250.32 -8.45c0,176.9 41.2,323.73 123.06,440.42 82.36,117.22 183.77,175.85 304.69,175.85 110.38,0 207.54,-54.93 292.04,-164.76 83.98,-109.86 126.2,-255.6 126.2,-437.78 0,-162.11 -40.67,-306.83 -121.45,-433.56 -81.34,-126.73 -186.41,-190.11 -315.28,-190.11 -119.86,0 -218.1,57.57 -294.65,173.21 -76.58,115.66 -114.61,261.41 -114.61,436.72z"/>
   <path id="_5" class="fil0" d="M19551.92 1671.57c66.02,-115.66 136.26,-202.25 211.23,-259.82 74.47,-57.57 153.16,-86.62 236.06,-86.62 57.57,0 107.21,20.6 148.94,61.27 41.7,41.2 62.82,87.67 62.82,139.4 0,98.76 -42.22,147.88 -126.73,147.88 -39.08,0 -72.88,-27.46 -99.82,-82.39 -33.25,-69.72 -77.61,-104.55 -132.54,-104.55 -52.29,0 -105.6,29.02 -161.06,86.59 -54.93,57.57 -91.9,120.42 -110.91,189.05 -18.49,68.66 -27.99,211.76 -27.99,429.86 0,200.14 8.45,314.75 24.82,343.8 16.9,29.55 59.15,48.03 127.81,56.48 18.49,2.11 27.99,10.03 27.99,22.71 0,22.71 -24.29,34.33 -72.36,34.33l-490.07 0c-34.86,0 -52.26,-9.51 -52.26,-27.99 0,-16.9 22.68,-26.94 68.1,-29.05 63.91,-4.23 102.99,-24.29 118.31,-60.18 15.32,-36.44 22.71,-169.01 22.71,-399.25 0,-336.9 -6.87,-539.69 -20.6,-607.82 -14.26,-68.1 -66.02,-104.02 -155.28,-108.24 -36.94,-2.11 -55.43,-11.62 -55.43,-29.58 0,-8.98 3.7,-15.84 11.62,-20.6 7.39,-4.75 54.37,-9.51 140.46,-14.26l282 -14.79c6.87,55.46 14.23,166.87 22.15,333.76z"/>
   <path id="_6" class="fil0" d="M20786.07 542.52c3.17,39.08 4.75,67.08 4.75,83.45l-4.75 165.28 6.87 593.03 1.06 613.1c174.26,-119.86 303.1,-226.02 387.08,-318.42 83.95,-91.9 126.2,-157.92 126.2,-196.97 0,-40.14 -38.03,-63.91 -114.05,-71.3 -40.14,-4.23 -60.21,-14.26 -60.21,-30.1 0,-12.15 5.28,-19.54 16.37,-22.18 10.56,-3.17 56.51,-4.75 136.76,-4.75l236.58 1.58c49.65,0 94.54,-1.06 134.65,-3.17 41.2,0 61.79,9.51 61.79,29.05 0,15.32 -11.62,25.35 -35.39,29.58 -72.33,12.15 -133.59,32.22 -184.82,60.74 -50.7,27.96 -114.05,82.36 -190.63,162.11 -70.77,74.97 -116.69,122.5 -137.29,142.04 147.85,71.83 259.79,271.44 335.85,599.37 18.49,79.75 45.42,135.21 80.81,166.37 35.39,31.13 100.32,48.03 195.92,51.2 31.16,2.11 46.48,11.62 46.48,28.52 0,19.01 -25.88,28.52 -77.64,28.52l-374.93 0c-38.03,-33.27 -62.85,-66.55 -75,-100.88 -11.62,-34.3 -22.71,-87.12 -33.27,-158.42 -35.91,-248.73 -134.65,-398.7 -296.24,-450.46 -5.28,5.28 -64.96,48.59 -179.02,130.45 -1.06,31.69 -1.58,60.71 -1.58,86.59 0,195.39 12.12,316.33 36.41,362.28 24.29,45.92 66.55,70.22 126.23,73.39 32.22,1.06 48.06,11.62 48.06,31.16 0,17.43 -32.75,25.88 -98.76,25.88l-446.76 0c-54.4,0 -81.86,-8.98 -81.86,-26.41 0,-16.37 12.15,-26.41 36.97,-30.63 52.29,-8.45 85.03,-17.43 98.76,-27.99 14.26,-10.03 29.05,-31.13 44.89,-63.35 15.84,-31.69 23.77,-91.9 23.77,-180.6l-1.58 -239.75 -15.84 -1089.43c0,-122.53 -12.15,-208.06 -36.97,-257.18 -24.29,-49.12 -72.88,-79.22 -145.77,-90.31 -25.85,-4.2 -39.06,-13.7 -39.06,-28.49 0,-17.96 42.75,-29.58 128.84,-34.86 39.08,-3.17 81.34,-7.92 125.67,-14.26 85.56,-13.73 149.47,-21.65 190.66,-23.77z"/>
   <path class="fil1" d="M3866.11 2350.55l-470.05 -893.85 -370.37 65.38 0 14.73c0,31.74 78.06,-35.75 225.63,234.83l513.7 906.25 93.04 -0.25c484.68,-993.34 504.77,-1297.11 1134.22,-1332.08 -567.54,-64.93 -713.06,247.73 -1011.52,790.97 -31.94,58.15 -82.92,176.82 -114.64,214.01zm-2461.15 -1721.02c-15.21,16.62 -145.05,59.01 -261.02,197.44 -79,94.29 -125.28,244.09 -39.69,357.84 153.69,204.28 505.97,156.72 779.22,122.78 -30.72,107.8 -219.93,426.94 -283.45,535.74l-244.81 376.68c-31.49,41.08 -67.38,81.2 -86.14,121.31 -335.79,-36.39 -533.15,-92.12 -869.75,18.04 -275.22,90.09 -504.49,350.14 -348.83,549.53 151.66,194.28 558.17,75.61 760.04,-14.59 183.46,-82 301.32,-168.56 447.7,-283.84 48.59,-38.28 83.11,-79.14 130.15,-116.17 546,112.16 1853.72,1121.85 3397.2,550.17 117.19,-43.42 334.15,-143.07 398.34,-214.54 -17.23,0.33 -285.51,136.54 -400.64,175.68 -152.94,51.95 -314.11,89.9 -483.45,111.38 -372.71,47.28 -730.35,14.68 -1079.4,-75.25 -287.34,-73.97 -599.87,-206.26 -860,-323.06 -213.82,-96.01 -640.48,-274.17 -876.2,-315.67l251.43 -314.39c157.36,-221.68 296.29,-445.2 426.61,-694.46 127.51,-243.87 54.65,-155.5 302.99,-268.83 332.57,-151.75 772.66,-400.64 953.53,-729.01 35.5,-64.49 61.57,-140.35 51.12,-224.55 -11.37,-91.7 -64.32,-127.76 -139.77,-153.27 -146.19,-49.48 -337.93,9.45 -451.29,70.36 -147.52,79.25 -143.27,94.79 -244.56,169.37 -37.39,27.52 -41.58,38.5 -77.14,69.19 -195.55,168.67 -474.39,609.62 -587.08,826.19 -54.59,104.94 -35.75,93.59 -161.59,116.69 -159.97,29.38 -343.13,50.01 -493.04,-2.95 -265.55,-93.82 -228.41,-333.37 -61.13,-512.97 20.15,-21.63 144.69,-113.44 150.66,-124.84zm895.77 507c250.18,-66.46 698.44,-354.17 849.63,-508.53 582.38,-594.61 62.79,-701.22 -234.72,-392.8 -177.49,183.96 -277.03,316.17 -417.71,544.72 -58.32,94.76 -158,256.29 -197.19,356.61zm-1112.42 1290.3c-290.23,-109.8 -772.18,-86.23 -1027.97,145.49 -59.85,54.23 -152.08,199.11 -71.86,310.72 132.65,184.52 487.79,50.84 647.32,-39.56 161.45,-91.51 349.44,-268.61 452.51,-416.65zm1567.05 -1080.57c-36.28,0 -66.35,-11.45 -90.2,-34.83 -23.88,-23.38 -35.8,-52.98 -35.8,-88.28 0,-34.39 11.93,-63.49 36.28,-87.34 24.35,-23.88 54.4,-35.8 89.73,-35.8 35.3,0 65.38,11.93 89.7,35.8 24.35,23.85 36.28,52.95 36.28,87.34 0,35.3 -11.93,64.91 -35.78,88.28 -23.88,23.38 -53.95,34.83 -90.2,34.83zm-262.63 172.65l403.76 -51.54 0 805.1 1.42 105.96c0,62.99 3.81,109.27 10.98,138.4 7.64,29.1 21.93,53.43 43.42,73 26.24,25.3 73.97,44.39 144.13,57.26l0 28.66 -618.96 0 0 -28.66c56.32,-7.62 96.4,-17.65 120.25,-31.49 24.35,-13.34 43.92,-36.28 58.71,-68.72 10.51,-21.01 17.65,-53.45 21.96,-96.4 4.28,-42.95 6.2,-105.46 6.2,-187.08l0 -343.13c0,-95.46 -2.39,-162.75 -7.17,-200.92 -4.28,-38.67 -14.79,-69.69 -30.52,-94.01 -15.76,-25.77 -35.33,-44.86 -57.76,-56.32 -22.43,-11.45 -54.4,-18.6 -96.4,-21.49l0 -28.63zm6649.47 369.4c-3.84,45.81 -5.73,78.75 -5.73,99.26 0,81.11 11.93,160.81 35.8,238.14 23.38,77.3 55.82,141.74 96.87,193.28 41.5,52.01 93.54,93.54 155.55,123.11 61.57,30.08 126.48,44.86 194.75,44.86 50.09,0 97.82,-8.59 142.68,-25.3 45.34,-16.68 82.56,-40.08 112.63,-70.13 33.38,-32.47 62.02,-84.48 86.37,-156.53l28.63 10.01c-24.32,109.27 -76.36,191.86 -156.05,247.2 -79.7,55.84 -185.66,83.53 -318.34,83.53 -114.53,0 -212.84,-18.15 -294.9,-54.43 -82.11,-36.28 -151.77,-92.57 -208.56,-167.98 -79.22,-104.99 -118.83,-234.8 -118.83,-388.47 0,-209.51 74.91,-374.15 225.24,-493.46 108.83,-86.37 233.39,-129.81 373.21,-129.81 74.47,0 143.18,13.37 206.65,39.61 63.49,26.71 116.94,64.91 160.84,115.03 68.24,77.78 102.13,175.12 102.13,292.07l-818.94 0zm609.9 -54.43c-6.67,-92.57 -23.85,-163.67 -51.54,-213.79 -24.82,-45.34 -58.71,-81.14 -100.24,-107.38 -41.97,-26.24 -86.37,-39.61 -133.62,-39.61 -79.7,0 -149.83,34.36 -209.51,102.6 -60.13,68.72 -95.43,154.64 -106.41,258.18l601.31 0zm-5321.67 226.72c0,-150.83 55.82,-285.4 167.51,-403.76 135.98,-143.66 298.27,-215.24 487.7,-215.24 189.02,0 350.8,71.58 485.84,215.24 111.69,119.31 167.53,254.37 167.53,405.17 0,149.36 -52.98,282.03 -159.42,398.48 -130.29,143.68 -294.93,215.26 -493.96,215.26 -199.47,0 -364.59,-71.58 -495.82,-215.26 -51.56,-55.82 -90.68,-118.33 -118.36,-187.05 -27.21,-69.22 -41.03,-139.85 -41.03,-212.84zm254.85 -15.76c0,161.78 36.25,298.74 108.8,411.37 81.61,125.51 181.82,188.02 299.68,188.02 50.12,0 98.79,-13.84 146.52,-41.97 47.26,-27.69 88.28,-66.82 122.67,-116.92 36.28,-52.04 65.38,-117.42 87.81,-196.17 22.4,-78.25 33.41,-154.14 33.41,-227.63 0,-76.36 -11.95,-153.19 -35.33,-231 -23.85,-77.3 -55.84,-144.1 -95.93,-199.95 -75.89,-105.02 -169.43,-157.5 -280.14,-157.5 -104.99,0 -195.67,55.37 -272.03,166.09 -76.83,110.24 -115.47,245.76 -115.47,405.65zm1576.78 -603.23c12.9,54.4 19.57,104.99 19.57,152.25l0 22.4c115.5,-116.44 252.93,-174.65 412.35,-174.65 118.83,0 214.76,27.69 287.76,83.5 71.61,55.37 107.38,133.15 107.38,234.83l0 591.75c0,63.46 3.84,109.77 10.98,138.88 7.62,29.6 21.96,53.93 43.42,73.5 25.77,25.3 73.5,44.39 143.18,57.26l0 28.63 -615.66 0 0 -28.63c55.84,-7.62 95.46,-18.12 119.81,-31.49 24.32,-13.34 43.42,-36.75 58.71,-69.19 10.01,-21.49 17.15,-53.93 21.46,-96.87 4.31,-43.45 6.2,-105.96 6.2,-187.08l0 -295.9c0,-101.66 -3.34,-176.57 -10.51,-223.82 -7.14,-47.73 -20.04,-85.89 -39.61,-114.53 -21.46,-32.94 -52.01,-58.24 -92.09,-76.36 -40.08,-18.15 -84,-27.21 -132.68,-27.21 -52.01,0 -100.68,10.03 -145.55,30.55 -45.34,20.51 -80.67,48.67 -106.91,84 -27.66,37.22 -46.28,79.7 -54.87,126.45 -9.06,47.26 -13.37,125.03 -13.37,234.33l0 273.94 1.42 103.55c0,62.99 3.84,109.77 11.01,138.88 7.62,29.6 21.93,53.93 43.42,73.5 26.24,25.3 74.44,44.39 144.6,57.26l0 28.63 -618.49 0 0 -28.63c55.82,-7.62 95.43,-17.65 119.78,-31.49 24.35,-13.34 43.42,-36.28 58.68,-68.72 10.03,-21.01 17.21,-53.45 21.49,-96.4 4.28,-42.95 6.2,-105.46 6.2,-187.08l0 -343.13c0,-95.46 -2.39,-162.75 -7.14,-200.92 -4.31,-38.67 -14.82,-69.69 -30.55,-94.01 -15.76,-25.77 -35.33,-44.86 -57.74,-56.32 -22.43,-11.45 -54.43,-18.62 -96.43,-21.49l0 -28.63 384.19 -51.54zm1490.41 0c12.9,54.4 19.57,104.99 19.57,152.25l0 22.4c115.5,-116.44 252.93,-174.65 412.35,-174.65 118.83,0 214.76,27.69 287.76,83.5 71.61,55.37 107.38,133.15 107.38,234.83l0 591.75c0,63.46 3.84,109.77 10.98,138.88 7.64,29.6 21.96,53.93 43.42,73.5 25.77,25.3 73.5,44.39 143.18,57.26l0 28.63 -615.66 0 0 -28.63c55.84,-7.62 95.46,-18.12 119.81,-31.49 24.32,-13.34 43.42,-36.75 58.71,-69.19 10.01,-21.49 17.15,-53.93 21.46,-96.87 4.31,-43.45 6.2,-105.96 6.2,-187.08l0 -295.9c0,-101.66 -3.34,-176.57 -10.51,-223.82 -7.14,-47.73 -20.01,-85.89 -39.58,-114.53 -21.49,-32.94 -52.01,-58.24 -92.12,-76.36 -40.08,-18.15 -84,-27.21 -132.68,-27.21 -52.01,0 -100.68,10.03 -145.55,30.55 -45.34,20.51 -80.67,48.67 -106.88,84 -27.69,37.22 -46.31,79.7 -54.9,126.45 -9.06,47.26 -13.37,125.03 -13.37,234.33l0 273.94 1.45 103.55c0,62.99 3.81,109.77 10.98,138.88 7.62,29.6 21.93,53.93 43.42,73.5 26.24,25.3 74.44,44.39 144.6,57.26l0 28.63 -618.49 0 0 -28.63c55.82,-7.62 95.43,-17.65 119.78,-31.49 24.35,-13.34 43.42,-36.28 58.71,-68.72 10.01,-21.01 17.18,-53.45 21.46,-96.4 4.31,-42.95 6.2,-105.46 6.2,-187.08l0 -343.13c0,-95.46 -2.36,-162.75 -7.14,-200.92 -4.31,-38.67 -14.79,-69.69 -30.55,-94.01 -15.76,-25.77 -35.33,-44.86 -57.74,-56.32 -22.43,-11.45 -54.43,-18.62 -96.4,-21.49l0 -28.63 384.16 -51.54z"/>
  </g>
 </g>
</svg>
